<svg xmlns="http://www.w3.org/2000/svg" version="1.1" xmlns:xlink="http://www.w3.org/1999/xlink" xmlns:svgjs="http://svgjs.dev/svgjs" viewBox="0 0 800 800">
	<defs>
		<linearGradient x1="50%" y1="0%" x2="50%" y2="100%" id="uundulate-grad">
			<stop stop-color="hsl(200, 3%, 97%)" stop-opacity="1" offset="45%"></stop>
			<stop stop-color="hsl(226, 5%, 94%)" stop-opacity="1" offset="100%"></stop>
		</linearGradient>
	</defs>
	<g stroke-width="2" stroke="url(#uundulate-grad)" fill="none">
		<path d="M2180.981268014524 -2311.1177743002177C2637.8031051095986 -1474.5729012505055 2819.125309556909 388.3416529931528 2069.2347449635126 1605.6422529512774C1319.3441803701162 2822.942852909402 -707.6877718745263 3960.53257489339 -1418.4934420337877 3531.92510549879C-2129.299112193049 3103.3176361041888 -1612.4206736636343 786.1802005209693 -1342.6324718009355 -451.67360014280666C-1072.8442699382363 -1689.5274008065821 -857.5962688877316 -2022.3889347378752 -123.51007309284319 -2409.773137687335C610.5761227020453 -2797.1573406367947 1724.1594309194493 -3147.6626473499296 2180.981268014524 -2311.1177743002177C2637.8031051095986 -1474.5729012505055 2819.125309556909 388.3416529931528 2069.2347449635126 1605.6422529512774 "></path>
		<path d="M2140.5044244821 -2249.5013495813473C2586.9439470977413 -1431.9688600100376 2764.1451923530676 388.6067270917192 2031.2975951367935 1578.241404323523C1298.4499979205202 2767.876081555327 -682.5130463185621 3879.6114916760434 -1377.1640421560223 3460.7451011313196C-2071.8150379934823 3041.878710586596 -1566.6838367033724 777.4034894484494 -1303.0271848830075 -432.3172702911497C-1039.3705330626426 -1642.038030030749 -829.014532036013 -1967.334529099967 -111.61211341828084 -2345.914545618757C605.7903051994508 -2724.4945621375473 1694.0649018664594 -3067.0338391526566 2140.5044244821 -2249.5013495813473C2586.9439470977413 -1431.9688600100376 2764.1451923530676 388.6067270917192 2031.2975951367935 1578.241404323523 "></path>
		<path d="M2100.027580949677 -2187.8851079679457C2536.084789085885 -1389.3650018750386 2709.165075149226 388.8716180848173 1993.3604453100752 1550.8403725903C1277.5558154709242 2712.809127095783 -657.3383207625982 3798.690225353227 -1335.834642278257 3389.5649136583797C-2014.3309637939155 2980.4396019635333 -1520.9469997431104 768.6265952704603 -1263.4218979650796 -412.961123544962C-1005.896796187049 -1594.5488423603845 -800.4327951842943 -1912.2803065675278 -99.71415374371895 -2282.0561366556485C601.0044876968564 -2651.831966743769 1663.970372813469 -2986.4052140608524 2100.027580949677 -2187.8851079679457C2536.084789085885 -1389.3650018750386 2709.165075149226 388.8716180848173 1993.3604453100752 1550.8403725903 "></path>
		<path d="M2059.550706899676 -2126.268561178763C2485.2256005564495 -1346.7608385642584 2654.1849274278065 389.13681425369623 1955.4232649657788 1523.4396460328571C1256.6616025037501 2657.7424778120194 -632.1636257242124 3717.76926420619 -1294.5052729180695 3318.385031361222C-1956.846920111927 2919.000798516252 -1475.2101933004267 759.850006268252 -1223.81664156473 -393.604671622993C-972.4230898290331 -1547.0593495142389 -771.8510888501537 -1857.2257788593074 -87.81622458673473 -2218.1974225167587C596.2186396766838 -2579.1690661742095 1633.8758132429011 -2905.776283793267 2059.550706899676 -2126.268561178763C2485.2256005564495 -1346.7608385642584 2654.1849274278065 389.13681425369623 1955.4232649657788 1523.4396460328571 "></path>
		<path d="M2019.0738633672522 -2064.652594223564C2434.3664425445922 -1304.1572550874623 2599.204810223966 389.40143058859076 1917.48611513906 1496.0383396414318C1235.7674200541542 2602.6752486942723 -606.9889001682482 3636.8477232251716 -1253.1758730403042 3247.204569230079C-1899.36284591236 2857.561415234987 -1429.4733563401646 751.0728374320602 -1184.211354646802 -374.2487995350084C-938.9493529534393 -1499.5704365020774 -743.269351998435 -1802.171830985071 -75.91826491217262 -2154.339288211853C591.4328221740893 -2506.5067454386344 1603.7812841899113 -2825.1479333596662 2019.0738633672522 -2064.652594223564C2434.3664425445922 -1304.1572550874623 2599.204810223966 389.40143058859076 1917.48611513906 1496.0383396414318 "></path>
		<path d="M1978.5968062117813 -2003.0363220925844C2383.507070909689 -1261.5533664348852 2544.2244793970767 389.66635209926653 1879.548751689294 1468.6373384257859C1214.8730239815113 2547.6083247523056 -581.8143882353311 3555.9264874199325 -1211.8466867855855 3176.024412274718C-1841.87898533584 2796.1223371295027 -1383.7367330029497 742.2959737716496 -1144.606281351921 -354.89262227124254C-905.4758297008924 -1452.081218314135 -714.6878287697632 -1747.1175779350538 -64.0205188606576 -2090.4808487311657C586.646791048448 -2433.844119527278 1573.686541513874 -2744.519277750284 1978.5968062117813 -2003.0363220925844C2383.507070909689 -1261.5533664348852 2544.2244793970767 389.66635209926653 1879.548751689294 1468.6373384257859 "></path>
		<path d="M1938.11993216178 -1941.419866856136C2332.6478823802536 -1218.9492946768391 2489.244331675658 389.93145671541106 1841.6115713449972 1441.2365203156096C1193.9788110143368 2492.5415839158086 -556.6396931969452 3475.005434720162 -1170.5173174253982 3104.844438424825C-1784.3949416538514 2734.683442129487 -1337.999926560266 733.5192932167074 -1105.0010249515713 -335.53626190200794C-872.0021233428768 -1404.5918170207235 -686.1061224356226 -1692.0631417795676 -52.122589703673384 -2026.62222614501C581.8609430282759 -2361.1813105104525 1543.5919819433066 -2663.890439035433 1938.11993216178 -1941.419866856136C2332.6478823802536 -1218.9492946768391 2489.244331675658 389.93145671541106 1841.6115713449972 1441.2365203156096 "></path>
		<path d="M1897.6432717348252 -1879.8035947251562C2281.7889074738655 -1176.3454060242623 2434.2643975772853 390.19637822608684 1803.6746046237472 1413.8355190999641C1173.0848116702095 2437.474659973842 -531.4647845355125 3394.084198914923 -1129.1877344421641 3033.6642814694633C-1726.9106843488157 2673.2443640240026 -1292.2629064945352 724.7424295562964 -1065.3955549281748 -316.1800846382421C-838.5282033618142 -1357.102598832781 -657.5242024784352 -1637.00888872955 -40.22444692364252 -1962.763786664323C577.0753086311502 -2288.518684599096 1513.4976359957855 -2583.2617834260504 1897.6432717348252 -1879.8035947251562C2281.7889074738655 -1176.3454060242623 2434.2643975772853 390.19637822608684 1803.6746046237472 1413.8355190999641 "></path>
		<path d="M1857.166397684824 -1818.1871394887078C2230.92971894443 -1133.7413342662162 2379.2842498558657 390.4614828422318 1765.7374242794508 1386.4347009897883C1152.1905987030354 2382.407919137345 -506.2900894971267 3313.1631462151545 -1087.858365081977 2962.484307619571C-1669.426640666827 2611.8054690239887 -1246.5261000518512 715.9657490013547 -1025.790298527825 -296.82372426900747C-805.0544970037985 -1309.6131975393696 -628.9424961442946 -1581.954452574064 -28.326517766658753 -1898.9051640781674C572.2894606109776 -2215.855875582271 1483.4030764252175 -2502.6329447111993 1857.166397684824 -1818.1871394887078C2230.92971894443 -1133.7413342662162 2379.2842498558657 390.4614828422318 1765.7374242794508 1386.4347009897883 "></path>
		<path d="M1816.6896151875567 -1756.571111498353C2180.0706219677295 -1091.1376897542639 2324.304193687181 390.7261602122826 1727.8003354878883 1359.0334556335179C1131.2964772885962 2327.340751054753 -481.11530290600626 3232.2416662692904 -1046.5289041690553 2891.3039065235853C-1611.942505432104 2550.3661467778793 -1200.7892020564332 707.1886412003182 -986.1849505747408 -277.4677911458666C-771.5806990930485 -1262.1242234920521 -600.3606982574197 -1526.9004436646715 -16.42849705694016 -1835.0469687381055C567.5037041435394 -2143.193493811539 1453.3086084073834 -2422.004533242442 1816.6896151875567 -1756.571111498353C2180.0706219677295 -1091.1376897542639 2324.304193687181 390.7261602122826 1727.8003354878883 1359.0334556335179 "></path>
		<path d="M1776.2128021727108 -1694.9546562619046C2129.211494473451 -1048.533617996218 2269.324107000917 390.9912648284271 1689.8632161787477 1331.6326375233411C1110.4023253565779 2272.274010218256 -455.9405468324642 3151.32061356952 -1005.1994737737116 2820.1239326736923C-1554.4584007149592 2488.9272517778636 -1155.0523345785932 698.4119606453764 -946.5796331392348 -258.111430776632C-738.1069316998766 -1214.634822198641 -571.7789308881229 -1471.8460075091855 -4.530506864799918 -1771.1883461519499C562.717917158523 -2070.530684794714 1423.2141098719717 -2341.375694527591 1776.2128021727108 -1694.9546562619046C2129.211494473451 -1048.533617996218 2269.324107000917 390.9912648284271 1689.8632161787477 1331.6326375233411 "></path>
		<path d="M1735.736019675444 -1633.338201025456C2078.35239749675 -1005.929546238172 2214.3440508322324 391.25636944457165 1651.9261273871853 1304.2318194131653C1089.5082039421382 2217.207269381759 -430.76576024134397 3070.3995608697505 -963.87001286079 2748.9439588238C-1496.974265480236 2427.488356777849 -1109.315436583175 689.6352800904342 -906.9742851861507 -238.7550704073974C-704.6331337891265 -1167.1454209052295 -543.197133001248 -1416.7915713536993 7.367513844918449 -1707.3297235657942C557.9321606910848 -1997.867875777889 1393.119641854138 -2260.7468558127403 1735.736019675444 -1633.338201025456C2078.35239749675 -1005.929546238172 2214.3440508322324 391.25636944457165 1651.9261273871853 1304.2318194131653 "></path>
		<path d="M1695.2591456254422 -1571.7221730351014C2027.4932089673143 -963.3259017262199 2159.363903110813 391.5210468146224 1613.9889470428884 1276.8305740568949C1068.613990974964 2162.1401012991682 -405.5910652029579 2989.4780809238873 -922.5406435006028 2677.7635577278133C-1439.4902217982474 2366.0490345317394 -1063.578630140491 680.8581722893987 -867.369028785801 -219.39913728425654C-671.1594274311109 -1119.656446857912 -514.6154266671074 -1361.7375624443068 19.26544300190244 -1643.471528225732C553.1463126709123 -1925.2054940071575 1363.0250822835696 -2180.118444343983 1695.2591456254422 -1571.7221730351014C2027.4932089673143 -963.3259017262199 2159.363903110813 391.5210468146224 1613.9889470428884 1276.8305740568949 "></path>
		<path d="M1654.7823326105972 -1510.1056567634967C1976.6340814730356 -920.7217689330178 2104.3838164245494 391.78621246592365 1576.0518277337478 1249.4298169818749C1047.7198390429462 2107.0734214978265 -380.4163091294158 2908.557089259273 -881.2112131052592 2606.5836449130766C-1382.0061170811025 2304.610200566881 -1017.841762662651 672.0815527696122 -827.763711350295 -200.0427158798659C-637.685660037939 -1072.1669845293445 -486.0336592978106 -1306.6830652536646 31.163433194042682 -1579.6128446044202C548.3605256858962 -1852.542623955176 1332.930583748158 -2099.4895445939756 1654.7823326105972 -1510.1056567634967C1976.6340814730356 -920.7217689330178 2104.3838164245494 391.78621246592365 1576.0518277337478 1249.4298169818749 "></path>
		<path d="M1614.3053364902826 -1448.489415150095C1925.7747708732882 -878.1179107980188 2049.403546632818 392.0511034590213 1538.114525319139 1222.0287852486513C1026.8255040054592 2052.0064670382817 -355.2417361613425 2827.635822936456 -839.8819658153843 2535.4034574401367C-1324.5221954694262 2243.1710919438183 -972.1050782902798 663.3046585916236 -788.1585770202578 -180.6865691336784C-604.2120757502357 -1024.67779685898 -457.4520750339824 -1251.6288427212253 43.06124028071417 -1515.7544356413114C543.5745555954111 -1779.8800285613977 1302.8359021072774 -2018.8609195021713 1614.3053364902826 -1448.489415150095C1925.7747708732882 -878.1179107980188 2049.403546632818 392.0511034590213 1538.114525319139 1222.0287852486513 "></path>
		<path d="M1573.8286150281715 -1386.8729293960685C1874.9157349317438 -835.5138085223944 1994.4235514992893 392.31623859274396 1500.1774975627327 1194.6279976560536C1005.9314436261757 1996.9397567193632 -330.066888535066 2746.7148007542646 -798.5524438673065 2464.2235141078236C-1267.037999199547 2181.7322274613816 -926.3681192597053 654.5280085542595 -748.5531680320173 -161.33017824686544C-570.7382168043293 -977.1883650479904 -428.8702161119513 -1196.574376048161 54.95932202558879 -1451.8957825375776C538.7888601631291 -1707.2171890269942 1272.7414951245996 -1938.2320502697423 1573.8286150281715 -1386.8729293960685C1874.9157349317438 -835.5138085223944 1994.4235514992893 392.31623859274396 1500.1774975627327 1194.6279976560536 "></path>
		<path d="M1533.3516494254359 -1325.2566877826669C1824.056454849574 -792.9099503873954 1939.4433122251353 392.5811295858416 1462.2402256657015 1167.22696592283C985.0371391062672 1941.8728022598184 -304.89228504941457 2665.7935344314474 -757.2231660598536 2393.0433266348828C-1209.5540470702927 2120.293118838319 -880.631404369756 645.7511143762704 -708.9480031844021 -141.97403150067794C-537.2646019990482 -929.6991773776263 -400.288601330545 -1141.5201535157216 66.8571596298384 -1388.0373735744688C534.002920590222 -1634.554593633216 1242.6468440012973 -1857.603425177938 1533.3516494254359 -1325.2566877826669C1824.056454849574 -792.9099503873954 1939.4433122251353 392.5811295858416 1462.2402256657015 1167.22696592283 "></path>
		<path d="M1492.8748058930123 -1263.6403240989528C1773.1972968377172 -750.3059701820839 1884.4631950212938 392.8461426492522 1424.3030758389823 1139.8260562599194C964.1429566566712 1886.805969870587 -279.7175594934504 2584.8723901789435 -715.8937661820881 2321.8632612322563C-1152.069972870726 2058.8541322855694 -834.8945674094939 636.9743422685942 -669.3427162664741 -122.61776268417748C-503.7908651234543 -882.2098676369492 -371.70686447882645 -1086.4658089129698 78.75511930440052 -1324.1788425410473C529.2171030876275 -1561.891876169125 1212.5523149483074 -1776.9746780158216 1492.8748058930123 -1263.6403240989528C1773.1972968377172 -750.3059701820839 1884.4631950212938 392.8461426492522 1424.3030758389823 1139.8260562599194 "></path>
		<path d="M1452.397931843011 -1202.0241130031293C1722.3381083082822 -707.7021425646631 1829.4830472998747 393.11100312477174 1386.365895494686 1112.424994009118C943.2487436894971 1831.7389848934645 -254.54286445506455 2503.951093338548 -674.5643968219008 2250.683043241739C-1094.585929188737 1997.4149931449288 -789.1577609668102 628.1974175730265 -629.7374598661245 -103.2616464555681C-470.31715876543876 -834.7207104841627 -343.12515814468577 -1031.4116168981086 90.65304846138451 -1260.3204640955169C524.4312550674549 -1489.2293112929249 1182.4577553777394 -1696.3460834415955 1452.397931843011 -1202.0241130031293C1722.3381083082822 -707.7021425646631 1829.4830472998747 393.11100312477174 1386.365895494686 1112.424994009118 "></path>
		<path d="M1411.9211188281652 -1140.4078408721496C1671.478980814003 -665.098253912086 1774.5029606136113 393.3759246354475 1348.4287761855453 1085.023992793473C922.3545917574793 1776.6720609514978 -229.36810838152246 2423.02985753331 -633.2349664265573 2179.502886286378C-1037.1018244715922 1935.9759150394452 -743.4208934889701 619.420553912616 -590.1321424306184 -83.90546919180224C-436.84339137226675 -787.2314922962203 -314.54339077538896 -976.3573638480913 102.55103865352476 -1196.4620246148297C519.6454680824386 -1416.5666853815683 1152.3632568423272 -1615.7174278322132 1411.9211188281652 -1140.4078408721496C1671.478980814003 -665.098253912086 1774.5029606136113 393.3759246354475 1348.4287761855453 1085.023992793473 "></path>
		<path d="M1371.444244778164 -1078.7914466708573C1620.6197922845681 -622.4942431891961 1719.5228128921917 393.6409682164358 1310.4915958412485 1057.6231136481401C901.4603787903052 1721.6052590798445 -204.1934133431365 2342.108743798384 -591.90559706637 2108.3228514013285C-979.6177807896036 1874.5369590042733 -697.6840870462863 610.6438123225175 -550.5268860302688 -64.54916985772388C-403.369685014251 -739.7421520379653 -285.9616844412485 -921.3029887277614 114.44896781050875 -1132.6034630638305C514.8596200622662 -1343.9039373998994 1122.2686972717593 -1535.0886501525183 1371.444244778164 -1078.7914466708573C1620.6197922845681 -622.4942431891961 1719.5228128921917 393.6409682164358 1310.4915958412485 1057.6231136481401 "></path>
		<path d="M1330.96740124574 -1017.1751135047213C1569.7606342727113 -579.8902935014628 1664.5426956883502 393.9059507622676 1272.5544460145297 1030.2221734676514C880.566196340709 1666.5383961730345 -179.01868778717244 2261.1875690283014 -550.5761971886045 2037.1427554811235C-922.1337065900367 1813.097941933946 -651.9472500860244 601.8670096972628 -510.9215991123408 -45.192931558801774C-369.89594813865733 -692.2528728148665 -257.3799475895298 -866.2486746425877 126.34692748507109 -1068.7449625479871C510.0738025596718 -1271.2412504533866 1092.1741682187694 -1454.45993350798 1330.96740124574 -1017.1751135047213C1569.7606342727113 -579.8902935014628 1664.5426956883502 393.9059507622676 1272.5544460145297 1030.2221734676514 "></path>
		<path d="M1290.490618748473 -955.5588718913198C1518.9015372960102 -537.2864353664636 1609.5626395196655 394.1708417553655 1234.6173572229673 1002.8211417344278C859.672074926269 1611.47144171349 -153.84390119605223 2180.266302705484 -509.2467362756829 1965.962568008184C-864.6495713553136 1751.6588333108834 -606.2103520906062 593.0901155192737 -471.3162511592568 -25.83678481261427C-336.4221502279072 -644.763685144502 -228.79814970265488 -811.1944521101485 138.24494819478923 -1004.8865535848784C505.28804609223357 -1198.5786550596083 1062.0797002009358 -1373.8313084161757 1290.490618748473 -955.5588718913198C1518.9015372960102 -537.2864353664636 1609.5626395196655 394.1708417553655 1234.6173572229673 1002.8211417344278 "></path>
		<path d="M1250.0137752160495 -893.9425387251838C1468.0423792841534 -494.68248567873025 1554.582522315824 394.4358243011977 1196.6802073962485 975.420201553939C838.7778924766731 1556.4045788066805 -128.66917564008816 2099.3451279354026 -467.91733639791755 1894.782472087979C-807.1654971557468 1690.2198162405557 -560.4735151303443 584.313312894019 -431.71096424132884 -6.480546513691934C-302.94841335231354 -597.2744059214032 -200.2164128509362 -756.1401380249748 150.14290786935135 -941.0280530690352C500.5022285896391 -1125.9159681130955 1031.9851711479455 -1293.2025917716371 1250.0137752160495 -893.9425387251838C1468.0423792841534 -494.68248567873025 1554.582522315824 394.4358243011977 1196.6802073962485 975.420201553939 "></path>
		<path d="M1209.536962201204 -832.3262360766258C1417.1832517898742 -452.0785665085749 1499.6024356295611 394.7007763294516 1158.743088087108 948.0192308558721C817.8837405446552 1501.3376853822924 -103.49441956654596 2018.423922647742 -426.58790600257396 1823.6023456501957C-749.6813924386018 1628.7807686526498 -514.7366476525042 575.5364797511863 -392.10564680582286 12.875661267652049C-269.4746459591415 -549.7851572158825 -171.63464548163938 -701.0858544573792 162.04089806149182 -877.1695830707702C495.7164416046228 -1053.253311684161 1001.8906726125338 -1212.5739056446769 1209.536962201204 -832.3262360766258C1417.1832517898742 -452.0785665085749 1499.6024356295611 394.7007763294516 1158.743088087108 948.0192308558721 "></path>
		<path d="M1169.0599965984684 -770.709933428068C1366.323971707705 -409.4746473384196 1444.6221963554071 394.96572835770553 1120.8058161900767 920.6182601578048C796.9894360247465 1446.2707919579043 -78.3198160808945 1937.502717360081 -385.258628195121 1752.4222192124125C-692.1974403093476 1567.3417210647435 -468.9999327625548 566.7596466083537 -352.5004819582075 32.23186904899603C-236.00103115386025 -502.29590851036176 -143.0530307002332 -646.0315708897838 173.93873566574143 -813.311113072505C490.93050203171606 -980.5906552552262 971.7960214892314 -1131.9452195177164 1169.0599965984684 -770.709933428068C1366.323971707705 -409.4746473384196 1444.6221963554071 394.96572835770553 1120.8058161900767 920.6182601578048 "></path>
		<path d="M1128.5832751363573 -709.0935392267758C1315.4649357661601 -366.87063661553 1389.6422012218782 395.23077193869403 1082.8687884336707 893.2173810124723C776.095375645463 1391.2039900862505 -53.14496845461804 1856.5816036251554 -343.92910624704314 1681.2421843273637C-634.7132440394682 1505.9027650295725 -423.26297373198037 557.9829050182555 -312.89507296996715 51.58816838307439C-202.52717220795398 -454.8065682521067 -114.471171778202 -590.9771957694538 185.83681741061582 -749.4525515215056C486.1448065994341 -907.9279072735574 941.701614506554 -1051.3164418380215 1128.5832751363573 -709.0935392267758C1315.4649357661601 -366.87063661553 1389.6422012218782 395.23077193869403 1082.8687884336707 893.2173810124723 "></path>
		<path d="M1088.1063705687773 -647.4773281309523C1264.6057167191475 -324.266808998109 1334.6620229828804 395.49563241421356 1044.9315775717957 865.8163187616706C755.2011321607108 1336.137005109128 -27.970303933810214 1775.66030678476 -302.5997674044339 1610.0619663368461C-577.2292308750577 1444.4636258889318 -377.5261978068747 549.2059803226882 -273.28984708719554 70.944284611684C-169.05349636751635 -407.31741109932045 -85.88949596163957 -535.9230037545927 197.73471605002192 -685.5941730759749C481.3589280616834 -835.265342397357 911.6070244184077 -970.6878472637956 1088.1063705687773 -647.4773281309523C1264.6057167191475 -324.266808998109 1334.6620229828804 395.49563241421356 1044.9315775717957 865.8163187616706 "></path>
		<path d="M1047.629557553932 -585.8610865175507C1213.746589224868 -281.6629508631099 1279.6819362966176 395.7605234073112 1006.9944582626551 838.4152870284474C734.306980228693 1281.0700506495841 -2.795547860268016 1694.7390404619437 -261.27033700909044 1538.8817788639067C-519.7451261579128 1383.0245172658697 -331.7893303290346 540.4290861446993 -233.68452965168956 90.30043135787173C-135.57972897434456 -359.828223428956 -57.307728592342755 -480.8687812221534 209.63270624216216 -621.735764112866C476.57314107666707 -762.6027470035788 881.5125258829958 -890.0592221719915 1047.629557553932 -585.8610865175507C1213.746589224868 -281.6629508631099 1279.6819362966176 395.7605234073112 1006.9944582626551 838.4152870284474 "></path>
		<path d="M1007.1526835039303 -524.2446923162585C1162.8874006954331 -239.05894014022033 1224.701788575198 396.0255669882997 969.0572779183585 811.0144078831147C713.4127672615186 1226.00324877793 22.37914717811782 1613.817926727017 -219.9409676489031 1467.7017439788574C-462.26108247592407 1321.5855612306982 -286.0525238863508 531.6523445546009 -194.07927325133983 109.65673069194986C-102.1060226163288 -312.3388831707009 -28.726022258202192 -425.8144061018236 221.53063539914615 -557.8772025618666C471.7872930564945 -689.9399990219097 851.4179663124278 -809.4304444922966 1007.1526835039303 -524.2446923162585C1162.8874006954331 -239.05894014022033 1224.701788575198 396.0255669882997 969.0572779183585 811.0144078831147 "></path>
		<path d="M966.675839971507 -462.6283591501225C1112.028242683576 -196.45499045248675 1169.7216713713567 396.29054953413174 931.1201280916398 783.6134677026259C692.5185848119227 1170.9363858711204 47.55387273408178 1532.8967519569346 -178.61156777113774 1396.5216480586523C-404.77700827635726 1260.1465441603705 -240.31568692608892 522.8755419293461 -154.47398633341197 129.01296899087197C-68.63228574073503 -264.8496039476022 -0.14428540648350463 -370.7600920166499 233.42859507370827 -494.01870204602346C467.00147555390004 -617.277312075397 821.3234372594377 -728.8017278477581 966.675839971507 -462.6283591501225C1112.028242683576 -196.45499045248675 1169.7216713713567 396.29054953413174 931.1201280916398 783.6134677026259 "></path>
		<path d="M926.1989659215055 -401.01205650156464C1061.1690541541411 -153.85107128233153 1114.7415236499373 396.55550156238587 893.182947747343 756.212497004559C671.6243718447486 1115.8694924467322 72.72856777246773 1451.975546669274 -137.2821984109504 1325.3415216208696C-347.2929645943686 1198.7074965724642 -194.5788804834051 514.0987087865133 -114.86872993306224 148.36917677221595C-35.15857938271938 -217.36035524208137 28.437420927657058 -315.7058084490543 245.32652423069226 -430.16023204775837C462.21562753372746 -544.6146556464623 791.2288776888697 -648.1730417207978 926.1989659215055 -401.01205650156464C1061.1690541541411 -153.85107128233153 1114.7415236499373 396.55550156238587 893.182947747343 756.212497004559 "></path>
		<path d="M885.7221529066601 -339.39569281785054C1010.3099266598622 -111.24709107701995 1059.761436963674 396.820514625796 855.2458284382024 728.8115873416482C650.7302199127307 1060.8026600575004 97.90332384600993 1371.0544024167702 -95.95276801560686 1254.1614562182422C-289.80885987722365 1137.2685100197148 -148.84201300556504 505.3219366788369 -75.26341249755626 167.72544558871618C-1.68481198954737 -169.87104550140452 57.01918829695387 -260.6514638463026 257.2245144228325 -366.3017010143371C457.42984054871124 -471.9519381823715 761.1343791534578 -567.544294558681 885.7221529066601 -339.39569281785054C1010.3099266598622 -111.24709107701995 1059.761436963674 396.820514625796 855.2458284382024 728.8115873416482 "></path>
		<path d="M845.2453093742365 -277.77945120444895C959.4507686480051 -68.64323294202086 1004.7813197598327 397.0854056188937 817.3086786114836 701.4105556084248C629.8360374631345 1005.735705597956 123.07804940197389 1290.133136093953 -54.62336813784145 1182.981268745303C-232.3247856776568 1075.8294013966527 -103.1051760453031 496.5450425008478 -35.658125579628404 187.0815923349038C31.788924886046402 -122.38185783104007 85.60092514867256 -205.59724131386338 269.1224740973946 -302.44329205122824C452.6440230461168 -399.2893427885932 731.0398501004679 -486.9156694668769 845.2453093742365 -277.77945120444895C959.4507686480051 -68.64323294202086 1004.7813197598327 397.0854056188937 817.3086786114836 701.4105556084248 "></path>
		<path d="M804.7684658418129 -216.16314855589104C908.5916106361481 -26.039313771865636 949.8012025559915 397.3503576471476 779.3715287847649 674.009584910358C608.9418550135385 950.6688121735681 148.25277495793796 1209.211930806293 -13.293968260076042 1111.8011423075197C-174.84071147809 1014.3903538087468 -57.36833908504116 487.76820935801516 3.9471613382995088 206.4378001162479C65.26266176164017 -74.89260912551936 114.18266200039125 -150.5429577462678 281.02043377195685 -238.5848220529632C447.85820554352233 -326.6266863596586 700.9453210474778 -406.2869833399165 804.7684658418129 -216.16314855589104C908.5916106361481 -26.039313771865636 949.8012025559915 397.3503576471476 779.3715287847649 674.009584910358 "></path>
		<path d="M764.2916223093896 -154.54678487217694C857.732452624291 16.56466643344595 894.82108535215 397.61537071055795 741.4343789580462 646.6086752474471C588.0476725639425 895.6019797843362 173.42750051390192 1128.2907865537886 28.03543161768937 1040.6210769048928C-117.35663727852318 952.9513672559972 -11.631502124779217 478.99143725033855 43.552448256227365 225.79406893274813C98.73639863723395 -27.4032993848424 142.76439885210993 -95.48861314351598 292.91839344651885 -174.72629101954186C443.072388040928 -253.96396889556775 670.850791994488 -325.65823617779984 764.2916223093896 -154.54678487217694C857.732452624291 16.56466643344595 894.82108535215 397.61537071055795 741.4343789580462 646.6086752474471 "></path>
		<path d="M723.8147482593879 -92.93054325877534C806.873264094856 59.16852456844504 839.8409376307307 397.8802617036556 703.4971986137493 619.2076435142237C567.1534595967684 840.5350253247921 198.60219555228787 1047.3695202309718 69.36480097787665 969.4408894319533C-59.8725935965345 891.5122586329348 34.10530431790454 470.21454307234967 83.1577046565771 245.15021567893587C132.2101049952496 20.08588828552206 171.3461051862505 -40.43439061107665 304.81632260350295 -110.86788205643302C438.2865400207554 -181.30137350178939 640.7562324239198 -245.02961108599573 723.8147482593879 -92.93054325877534C806.873264094856 59.16852456844504 839.8409376307307 397.8802617036556 703.4971986137493 619.2076435142237 "></path>
		<path d="M683.3379047269644 -31.314179575061246C756.014106082999 101.77250477375662 784.8608204268894 398.14527476706587 665.5600487870308 591.8067338513129C546.2592771471723 785.4681929355602 223.77692110825183 966.4483759784673 110.69420085564207 898.2608240293262C-2.3885193969676948 830.0732720801852 79.84214127816648 461.43777096467306 122.76299157450495 264.506484495436C165.68384187084342 67.5751980261989 199.92784203796919 14.619953991675061 316.71428227806507 -47.00935102301173C433.50072251816096 -108.63865603769852 610.6617033709298 -164.40086392387906 683.3379047269644 -31.314179575061246C756.014106082999 101.77250477375662 784.8608204268894 398.14527476706587 665.5600487870308 591.8067338513129 "></path>
		<path d="M642.861061194541 30.302153591074728C705.154948071142 144.37645446149008 729.8807032230479 398.410257312898 627.6228989603121 564.4057936708241C525.3650946975763 730.4013300287502 248.9516466642159 885.5272012083851 152.02360073340753 827.0807281091211C55.09555480259911 768.6342550098575 125.57897823842842 452.66096833941845 162.3682784924328 283.8627227943581C199.15757874643725 115.06447724929774 228.50957888968787 69.6742680768487 328.6122419526272 16.849149492831486C428.7149050155665 -35.97596909118579 580.5671743179398 -83.77214727934052 642.861061194541 30.302153591074728C705.154948071142 144.37645446149008 729.8807032230479 398.410257312898 627.6228989603121 564.4057936708241 "></path>
		<path d="M602.3842329209065 91.91842572205445C654.295805318074 186.98034311406718 674.9006012779957 398.6751788235738 589.6857643923825 537.004792455179C504.47092750676927 675.334406086784 274.126387478969 804.6059654031465 193.35301586996195 755.9005711537598C112.57964426095498 707.1951769043735 171.31583045747942 443.8841046790076 201.97358066914978 303.21890005812395C232.6313308808201 162.55369543724032 257.0913310001956 124.7285211268661 340.5102168859785 80.7075889735184C423.9291027717611 36.6866568201707 550.4726605237389 -3.14349166995828 602.3842329209065 91.91842572205445C654.295805318074 186.98034311406718 674.9006012779957 398.6751788235738 589.6857643923825 537.004792455179 "></path>
		<path d="M561.907389388483 153.53472837061236C603.4366473062171 229.58426228422252 619.9204840741544 398.9401308518278 551.7486145656637 509.60382175711186C483.5767450571732 620.267512662396 299.301113034933 723.6847601154859 234.68241574772742 684.7204447159767C170.06371846052184 645.7561293164674 217.05266741774136 435.10727153617484 241.57886758707764 322.57510783946793C266.10506775641386 210.04294414276103 285.6730678519143 179.78280469446167 352.4081765605406 144.5660589717835C419.14328526916677 109.34931324910531 520.3781314707489 77.48519445700214 561.907389388483 153.53472837061236C603.4366473062171 229.58426228422252 619.9204840741544 398.9401308518278 551.7486145656637 509.60382175711186 "></path>
		<path d="M521.4305458560596 215.1510767955374C552.57748929436 272.18822723074504 564.940366870313 399.205128656449 513.8114647389451 482.20289683541205C462.6825626075772 565.2006650143751 324.475838590897 642.7636006041926 276.01181562549283 613.5403640545605C227.54779266008865 584.3171275049287 262.78950437800324 426.3304841697093 281.1841545050055 341.931361397179C299.5788046320077 257.53223862464887 314.254804703633 234.83713403842432 364.30613623510266 208.42457474641571C414.3574677665723 182.0120154544071 490.28360241775897 158.11392636032974 521.4305458560596 215.1510767955374C552.57748929436 272.18822723074504 564.940366870313 399.205128656449 513.8114647389451 482.20289683541205 "></path>
		<path d="M480.9536870648469 276.7673947028843C501.718316023714 314.7921616596894 509.9602344076827 399.47009594349197 475.87429965343733 454.801941396134C441.78836489919206 510.13378684877614 349.65054888807197 561.8424105753211 317.3412002444692 542.3602528755664C285.0318516008664 522.8780951758118 308.5263260794761 417.5536662856655 320.7894261641443 361.2875844373121C333.0525262488124 305.02150258895864 342.8365262965626 289.89143286480896 376.20408065087577 272.28306000346987C409.57163500518885 254.67468714213078 460.18905810597994 238.74262774607922 480.9536870648469 276.7673947028843C501.718316023714 314.7921616596894 509.9602344076827 399.47009594349197 475.87429965343733 454.801941396134 "></path>
		<path d="M440.4768587912125 338.3836820926531C450.85917327064607 357.3960655710556 454.9801324626304 399.7350327129569 437.93716508550773 427.40095543927794C420.8941977083851 455.066878165599 374.82528970282505 480.9211900288715 358.67061538102365 471.18011117899414C342.51594105922226 461.43903232911686 354.2631782985271 408.7768178840437 360.3947283408612 380.64377695986695C366.5262783831953 352.51073603569023 371.4182784070704 344.9457011736154 388.10205558422695 336.14151474294584C404.78583276138346 327.3373283122763 430.09454431177903 319.3712986142505 440.4768587912125 338.3836820926531C450.85917327064607 357.3960655710556 454.9801324626304 399.7350327129569 437.93716508550773 427.40095543927794 "></path>
	</g>
</svg>