<svg width="333" height="77" viewBox="0 0 333 77" fill="none" xmlns="http://www.w3.org/2000/svg">
	<path d="M9.10027 55.669L14.3755 50.6837C14.865 50.2321 15.1369 49.5999 15.1369 48.9316V40.966H24.0378C24.4547 40.966 24.8716 40.8035 25.1798 40.5144L31.9416 34.1383C32.2135 33.8855 32.0322 33.4158 31.6515 33.4158H15.1369V28.4667H29.2405C37.1081 28.4667 43.6341 22.199 43.6885 14.3417C43.7429 6.43029 37.3256 0 29.4037 0H10.0248C8.66519 0 7.55939 1.10182 7.55939 2.45652V20.9165H2.01221C0.906401 20.9165 0.018128 21.8016 0.018128 22.9034V26.4798C0.018128 27.5816 0.906401 28.4667 2.01221 28.4667H7.57751V33.4158H2.01221C0.906401 33.4158 0 34.319 0 35.4208V38.9611C0 40.0629 0.906401 40.966 2.01221 40.966H7.57751V55.0007C7.57751 55.8135 8.52017 56.2109 9.10027 55.669ZM15.1369 7.56824H28.4247C32.1772 7.56824 35.3315 10.6389 35.259 14.3778C35.1865 18.0084 32.2135 20.9346 28.5516 20.9346H15.1369V7.56824Z" fill="#1CAAE7"/>
	<path d="M43.8698 25.8115L45.1569 23.5898C45.5013 22.9937 46.2446 22.795 46.8428 23.1382L46.8791 23.1563C47.4773 23.4995 47.6767 24.24 47.3323 24.8361L46.0452 27.0578C45.7007 27.6539 44.9575 27.8526 44.3593 27.5094L44.323 27.4913C43.7248 27.1481 43.5254 26.3895 43.8698 25.8115Z" fill="#1CAAE7"/>
	<path d="M49.6345 34.8609L51.8643 33.5784C52.4625 33.2352 53.2057 33.4339 53.5502 34.03L53.5683 34.0661C53.9127 34.6622 53.7133 35.4027 53.1151 35.7459L50.8854 37.0284C50.2871 37.3716 49.5439 37.1729 49.1995 36.5768L49.1813 36.5407C48.8369 35.9446 49.0363 35.204 49.6345 34.8609Z" fill="#1CAAE7"/>
	<path d="M50.0877 45.572H52.6619C53.3508 45.572 53.8946 46.1139 53.8946 46.8002V46.8364C53.8946 47.5228 53.3508 48.0646 52.6619 48.0646H50.0877C49.3989 48.0646 48.855 47.5228 48.855 46.8364V46.8002C48.855 46.1139 49.3989 45.572 50.0877 45.572Z" fill="#1CAAE7"/>
	<path d="M43.3985 55.5425L43.4166 55.5064C43.7611 54.9104 44.5043 54.7117 45.1025 55.0549L47.3323 56.3373C47.9305 56.6805 48.1299 57.4211 47.7855 58.0171L47.7673 58.0533C47.4229 58.6493 46.6797 58.848 46.0814 58.5048L43.8517 57.2224C43.2535 56.8792 43.0541 56.1386 43.3985 55.5425Z" fill="#1CAAE7"/>
	<path d="M34.2982 60.3833L34.3163 60.3653C34.9146 60.0221 35.6578 60.2208 36.0023 60.8168L37.2893 63.0385C37.6338 63.6346 37.4344 64.3752 36.8361 64.7184L36.818 64.7364C36.2198 65.0796 35.4765 64.8809 35.1321 64.2849L33.845 62.0632C33.5187 61.4671 33.7181 60.7265 34.2982 60.3833Z" fill="#1CAAE7"/>
	<path d="M24.0015 60.0401H24.0378C24.7266 60.0401 25.2705 60.582 25.2705 61.2684V63.8333C25.2705 64.5197 24.7266 65.0616 24.0378 65.0616H24.0015C23.3126 65.0616 22.7688 64.5197 22.7688 63.8333V61.2684C22.7688 60.582 23.3126 60.0401 24.0015 60.0401Z" fill="#1CAAE7"/>
	<path d="M12.2727 57.2766L13.5598 55.0549C13.9042 54.4588 14.6474 54.2601 15.2457 54.6033L15.2819 54.6214C15.8801 54.9645 16.0796 55.7232 15.7351 56.3012L14.448 58.5229C14.1036 59.1189 13.3604 59.3176 12.7621 58.9745L12.744 58.9564C12.1458 58.6313 11.9282 57.8726 12.2727 57.2766Z" fill="#1CAAE7"/>
	<path d="M56.8314 0.632192L71.9864 15.7325C72.7478 16.4912 72.7478 17.7194 71.9864 18.4781L69.3941 21.061C68.6327 21.8196 67.4 21.8196 66.6386 21.061L51.4836 5.96066C50.7222 5.20203 50.7222 3.97378 51.4836 3.21515L54.0759 0.632192C54.8191 -0.126438 56.07 -0.126438 56.8314 0.632192Z" fill="#1CAAE7"/>
	<path d="M55.4536 0.0541878C54.9279 0.0541878 54.4385 0.252877 54.0759 0.632192L51.4836 3.21515C50.7222 3.97378 50.7222 5.20203 51.4836 5.96066L66.6567 21.061C67.4181 21.8196 68.6508 21.8196 69.4122 21.061L72.0045 18.4781C72.7659 17.7194 72.7659 16.4912 72.0045 15.7325L56.8314 0.632192C56.4688 0.270939 55.9612 0.0541878 55.4536 0.0541878Z" fill="#1CAAE7"/>
	<path d="M52.2994 14.992L49.2357 17.882C48.565 18.5142 48.5287 19.5618 49.1632 20.2482C49.1813 20.2663 49.2176 20.3024 49.2357 20.3204C49.4895 20.5553 49.7433 20.7901 49.9971 21.0429C61.2909 31.9166 61.599 49.8709 50.686 61.1239C39.7729 72.3769 21.7536 72.684 10.4599 61.8103C10.2242 61.5935 10.0067 61.3587 9.78913 61.142C9.17278 60.5278 8.59268 59.8956 8.04884 59.2454C7.45062 58.5229 6.39919 58.4326 5.67407 59.0286C5.63782 59.0467 5.61969 59.0828 5.60156 59.1009L2.53792 61.9909C1.88531 62.605 1.83093 63.6165 2.41103 64.2849C8.88273 71.9253 18.2912 76.5313 28.316 76.9648C49.1995 77.8679 66.2942 61.2684 65.9135 40.4422C65.7503 30.7968 61.6715 21.621 54.6197 15.01C53.949 14.3778 52.952 14.3778 52.2994 14.992Z" fill="#1CAAE7"/>
	<path d="M29.5305 42.1401C30.2314 42.1401 30.7995 41.574 30.7995 40.8757C30.7995 40.1774 30.2314 39.6113 29.5305 39.6113C28.8297 39.6113 28.2616 40.1774 28.2616 40.8757C28.2616 41.574 28.8297 42.1401 29.5305 42.1401Z" fill="#1CAAE7"/>
	<path d="M29.5305 39.6113C28.8236 39.6113 28.2616 40.1713 28.2616 40.8757C28.2616 41.5801 28.8236 42.1401 29.5305 42.1401C30.2375 42.1401 30.7995 41.5801 30.7995 40.8757C30.7995 40.1713 30.2194 39.6113 29.5305 39.6113Z" fill="#1CAAE7"/>
	<path d="M32.1954 43.4225L39.6822 58.6493C39.9179 59.137 39.7185 59.7331 39.229 59.9679L38.7396 60.2027C38.2501 60.4375 37.6519 60.2388 37.4162 59.7511L29.9294 44.5244C29.6937 44.0367 29.8931 43.4406 30.3826 43.2058L30.872 42.971C31.3615 42.7362 31.9416 42.9348 32.1954 43.4225Z" fill="#1CAAE7"/>
	<path d="M33.0474 39.6294H42.2383C42.7821 39.6294 43.2172 40.0629 43.2172 40.6048V41.1647C43.2172 41.7066 42.7821 42.1401 42.2383 42.1401H33.0474C32.5035 42.1401 32.0685 41.7066 32.0685 41.1647V40.6048C32.0685 40.0629 32.5035 39.6294 33.0474 39.6294Z" fill="#1CAAE7"/>
	<path d="M80.2704 68.1128L69.1051 29.0919H78.1174L84.5765 56.2046H84.9004L92.0264 29.0919H99.743L106.85 56.2617H107.193L113.652 29.0919H122.664L111.499 68.1128H103.458L96.0276 42.6006H95.7228L88.311 68.1128H80.2704Z" fill="#1CAAE7"/>
	<path d="M137.007 68.6844C134.047 68.6844 131.488 68.0557 129.328 66.7982C127.182 65.5279 125.524 63.7623 124.355 61.5014C123.187 59.2277 122.602 56.592 122.602 53.5943C122.602 50.5712 123.187 47.9291 124.355 45.6681C125.524 43.3945 127.182 41.6289 129.328 40.3714C131.488 39.1011 134.047 38.466 137.007 38.466C139.966 38.466 142.52 39.1011 144.666 40.3714C146.826 41.6289 148.49 43.3945 149.658 45.6681C150.827 47.9291 151.411 50.5712 151.411 53.5943C151.411 56.592 150.827 59.2277 149.658 61.5014C148.49 63.7623 146.826 65.5279 144.666 66.7982C142.52 68.0557 139.966 68.6844 137.007 68.6844ZM137.045 62.3969C138.391 62.3969 139.515 62.0158 140.417 61.2537C141.319 60.4788 141.999 59.4246 142.456 58.0908C142.926 56.7571 143.161 55.2392 143.161 53.5371C143.161 51.835 142.926 50.3171 142.456 48.9834C141.999 47.6497 141.319 46.5954 140.417 45.8206C139.515 45.0457 138.391 44.6583 137.045 44.6583C135.686 44.6583 134.543 45.0457 133.615 45.8206C132.701 46.5954 132.008 47.6497 131.538 48.9834C131.081 50.3171 130.853 51.835 130.853 53.5371C130.853 55.2392 131.081 56.7571 131.538 58.0908C132.008 59.4246 132.701 60.4788 133.615 61.2537C134.543 62.0158 135.686 62.3969 137.045 62.3969Z" fill="#1CAAE7"/>
	<path d="M156.689 68.1128V38.8471H164.558V43.9534H164.863C165.396 42.1369 166.292 40.7651 167.549 39.8379C168.807 38.8979 170.255 38.4279 171.894 38.4279C172.3 38.4279 172.738 38.4533 173.208 38.5041C173.678 38.5549 174.091 38.6248 174.447 38.7137V45.9158C174.066 45.8015 173.539 45.6999 172.865 45.611C172.192 45.5221 171.576 45.4776 171.017 45.4776C169.823 45.4776 168.756 45.738 167.816 46.2588C166.889 46.7669 166.152 47.4782 165.606 48.3928C165.073 49.3073 164.806 50.3616 164.806 51.5556V68.1128H156.689Z" fill="#1CAAE7"/>
	<path d="M185.998 59.6913L186.017 49.9551H187.198L196.573 38.8471H205.89L193.295 53.5562H191.371L185.998 59.6913ZM178.643 68.1128V29.0919H186.76V68.1128H178.643ZM196.935 68.1128L188.322 55.3662L193.734 49.6312L206.442 68.1128H196.935Z" fill="#1CAAE7"/>
	<path d="M205.499 35.8938V29.0919H237.547V35.8938H225.601V68.1128H217.446V35.8938H205.499Z" fill="#1CAAE7"/>
	<path d="M242.672 68.1128V38.8471H250.789V68.1128H242.672ZM246.75 35.0746C245.543 35.0746 244.508 34.6744 243.644 33.8742C242.793 33.0613 242.368 32.0896 242.368 30.9591C242.368 29.8413 242.793 28.8823 243.644 28.082C244.508 27.2691 245.543 26.8626 246.75 26.8626C247.957 26.8626 248.985 27.2691 249.837 28.082C250.7 28.8823 251.132 29.8413 251.132 30.9591C251.132 32.0896 250.7 33.0613 249.837 33.8742C248.985 34.6744 247.957 35.0746 246.75 35.0746Z" fill="#1CAAE7"/>
	<path d="M257.291 68.1128V38.8471H265.027V44.0105H265.37C265.98 42.2957 266.996 40.943 268.418 39.9522C269.841 38.9614 271.543 38.466 273.525 38.466C275.532 38.466 277.24 38.9678 278.65 39.9712C280.06 40.962 281 42.3084 281.47 44.0105H281.775C282.372 42.3338 283.452 40.9938 285.014 39.9903C286.589 38.9741 288.45 38.466 290.597 38.466C293.328 38.466 295.544 39.3361 297.246 41.0763C298.961 42.8038 299.818 45.2553 299.818 48.4309V68.1128H291.721V50.0313C291.721 48.4055 291.289 47.1861 290.425 46.3731C289.561 45.5602 288.482 45.1537 287.186 45.1537C285.713 45.1537 284.563 45.6237 283.737 46.5636C282.912 47.4909 282.499 48.7167 282.499 50.2409V68.1128H274.63V49.8598C274.63 48.4245 274.217 47.2813 273.391 46.4303C272.578 45.5792 271.505 45.1537 270.171 45.1537C269.269 45.1537 268.456 45.3823 267.732 45.8396C267.021 46.2842 266.456 46.913 266.037 47.7259C265.618 48.5261 265.408 49.4661 265.408 50.5458V68.1128H257.291Z" fill="#1CAAE7"/>
	<path d="M319.567 68.6844C316.557 68.6844 313.966 68.0747 311.794 66.8553C309.634 65.6232 307.97 63.883 306.802 61.6347C305.633 59.3738 305.049 56.7 305.049 53.6133C305.049 50.6029 305.633 47.9609 306.802 45.6872C307.97 43.4135 309.615 41.6416 311.736 40.3714C313.87 39.1011 316.373 38.466 319.243 38.466C321.174 38.466 322.972 38.7772 324.636 39.3996C326.312 40.0093 327.773 40.9302 329.018 42.1624C330.275 43.3945 331.253 44.9441 331.952 46.8113C332.651 48.6658 333 50.8379 333 53.3275V55.5568H308.288V50.5267H325.36C325.36 49.3581 325.106 48.3229 324.597 47.421C324.089 46.5192 323.384 45.8142 322.483 45.3061C321.593 44.7853 320.558 44.525 319.377 44.525C318.145 44.525 317.052 44.8107 316.1 45.3823C315.16 45.9412 314.423 46.697 313.889 47.6497C313.356 48.5896 313.083 49.6376 313.07 50.7935V55.5758C313.07 57.0239 313.337 58.275 313.87 59.3293C314.417 60.3836 315.185 61.1965 316.176 61.7681C317.167 62.3397 318.342 62.6255 319.701 62.6255C320.603 62.6255 321.428 62.4985 322.178 62.2444C322.927 61.9904 323.569 61.6093 324.102 61.1012C324.636 60.5932 325.042 59.9708 325.321 59.234L332.829 59.7294C332.447 61.5331 331.666 63.1082 330.485 64.4546C329.316 65.7883 327.805 66.8299 325.95 67.5793C324.108 68.3161 321.981 68.6844 319.567 68.6844Z" fill="#1CAAE7"/>
</svg>
