<svg id="Слой_1" data-name="Слой 1" xmlns="http://www.w3.org/2000/svg" viewBox="0 0 400.78 427.04"><defs><style>.cls-1{fill:#fff;}</style></defs><title>logo_v4</title><path class="cls-1" d="M298.39,526.66a13.57,13.57,0,0,0,8.84,9.34Z" transform="translate(-255.64 -193.11)"/><path class="cls-1" d="M309,537.1l-1.88-.62a14,14,0,0,1-9.17-9.69l-.52-1.91Zm-9.26-8.32a13.1,13.1,0,0,0,5.49,5.8Z" transform="translate(-255.64 -193.11)"/><path class="cls-1" d="M297.9,509.75l41.77-39.54V420.34h52.68l43-40.7a10.91,10.91,0,0,0-4.7-1.07h-91V351.13h78.76a78.76,78.76,0,0,0,0-157.52H311.48a13.57,13.57,0,0,0-13.58,13.57V309.36H267.19a11.05,11.05,0,0,0-11.05,11.05v19.67a11.05,11.05,0,0,0,11.05,11.05H297.9v27.44H267.2a11.07,11.07,0,0,0-11.06,11.07v19.64a11.06,11.06,0,0,0,11.06,11.06h30.7Zm41.77-237.38v-37h74a37,37,0,0,1,0,74h-74Z" transform="translate(-255.64 -193.11)"/><path class="cls-1" d="M297.4,510.92V420.84H267.2a11.58,11.58,0,0,1-11.56-11.56V389.64a11.58,11.58,0,0,1,11.56-11.57h30.2V351.63H267.19a11.56,11.56,0,0,1-11.55-11.55V320.41a11.56,11.56,0,0,1,11.55-11.55H297.4V207.18a14.09,14.09,0,0,1,14.08-14.07h107a79.26,79.26,0,0,1,0,158.52H340.17v26.44h90.47a11.55,11.55,0,0,1,4.92,1.11l.66.32-43.67,41.34H340.17v49.59l-.16.15ZM267.2,379.07a10.58,10.58,0,0,0-10.56,10.57v19.64a10.58,10.58,0,0,0,10.56,10.56h31.2v88.75L339.17,470V419.84h53l42.3-40a10.56,10.56,0,0,0-3.81-.72H339.17V350.63h79.26a78.26,78.26,0,0,0,0-156.52H311.48a13.09,13.09,0,0,0-13.08,13.07V309.86H267.19a10.56,10.56,0,0,0-10.55,10.55v19.67a10.56,10.56,0,0,0,10.55,10.55H298.4v28.44Zm146.46-69.21H339.17v-75h74.49a37.5,37.5,0,0,1,0,75Zm-73.49-1h73.49a36.5,36.5,0,0,0,0-73H340.17Z" transform="translate(-255.64 -193.11)"/><rect class="cls-1" x="493.71" y="326.77" width="27.85" height="13.8" rx="6.81" transform="translate(-290.78 413.34) rotate(-60)"/><path class="cls-1" d="M504.14,347.18a7.29,7.29,0,0,1-3.65-1l-.14-.09a7.33,7.33,0,0,1-2.68-10l7.11-12.31a7.33,7.33,0,0,1,10-2.68l.14.08a7.31,7.31,0,0,1,2.68,10l-7.11,12.32a7.34,7.34,0,0,1-6.35,3.66Zm7-26a6.67,6.67,0,0,0-1.65.21,6.28,6.28,0,0,0-3.83,2.95l-7.11,12.31a6.32,6.32,0,0,0,2.31,8.63l.14.08a6.32,6.32,0,0,0,8.63-2.31l7.11-12.32a6.31,6.31,0,0,0-2.31-8.62l-.14-.08A6.24,6.24,0,0,0,511.13,321.15Z" transform="translate(-255.64 -193.11)"/><rect class="cls-1" x="525.6" y="382" width="27.85" height="13.8" rx="6.81" transform="translate(-377.8 128.76) rotate(-30)"/><path class="cls-1" d="M533.42,399.84a7.32,7.32,0,0,1-6.35-3.66L527,396a7.31,7.31,0,0,1,2.68-10L542,378.94a7.33,7.33,0,0,1,10,2.67l.08.15a7.31,7.31,0,0,1-2.68,10l-12.31,7.11A7.33,7.33,0,0,1,533.42,399.84ZM545.63,379a6.34,6.34,0,0,0-3.15.85l-12.31,7.11a6.32,6.32,0,0,0-2.31,8.63l.08.14a6.3,6.3,0,0,0,8.63,2.31l12.31-7.11a6.31,6.31,0,0,0,2.31-8.62l-.08-.15a6.34,6.34,0,0,0-5.48-3.16Z" transform="translate(-255.64 -193.11)"/><rect class="cls-1" x="269.96" y="252.67" width="27.85" height="13.8" rx="6.81"/><path class="cls-1" d="M546.64,460.08H532.41a7.33,7.33,0,0,1-7.31-7.32v-.17a7.32,7.32,0,0,1,7.31-7.31h14.23a7.32,7.32,0,0,1,7.31,7.31v.17A7.33,7.33,0,0,1,546.64,460.08Zm-14.23-13.8a6.32,6.32,0,0,0-6.31,6.31v.17a6.32,6.32,0,0,0,6.31,6.32h14.23a6.32,6.32,0,0,0,6.31-6.32v-.17a6.32,6.32,0,0,0-6.31-6.31Z" transform="translate(-255.64 -193.11)"/><rect class="cls-1" x="500.74" y="493.99" width="13.8" height="27.85" rx="6.81" transform="translate(-441.69 500.47) rotate(-60)"/><path class="cls-1" d="M513.74,518.85a7.23,7.23,0,0,1-3.65-1l-12.31-7.11a7.31,7.31,0,0,1-2.68-10l.08-.14a7.32,7.32,0,0,1,10-2.68l12.31,7.11a7.32,7.32,0,0,1,3.41,4.44,7.23,7.23,0,0,1-.73,5.55l-.08.15A7.33,7.33,0,0,1,513.74,518.85ZM501.53,498a6.31,6.31,0,0,0-5.48,3.16l-.08.14a6.3,6.3,0,0,0,2.31,8.63L510.59,517a6.32,6.32,0,0,0,8.63-2.31l.08-.15a6.31,6.31,0,0,0-2.31-8.62l-12.31-7.11A6.24,6.24,0,0,0,501.53,498Z" transform="translate(-255.64 -193.11)"/><path class="cls-1" d="M452.32,525.88h.17a6.82,6.82,0,0,1,6.82,6.82v14.22a6.81,6.81,0,0,1-6.81,6.81h-.17a6.81,6.81,0,0,1-6.81-6.81V532.69A6.81,6.81,0,0,1,452.32,525.88Z" transform="translate(-464.98 105.54) rotate(-30.01)"/><path class="cls-1" d="M455.9,553.32a7.33,7.33,0,0,1-6.35-3.66l-7.11-12.32a7.31,7.31,0,0,1,2.68-10l.14-.08a7.32,7.32,0,0,1,10,2.67l7.11,12.32a7.32,7.32,0,0,1-2.67,10l-.15.09A7.29,7.29,0,0,1,455.9,553.32Zm-7-26a6.28,6.28,0,0,0-3.15.84l-.14.09a6.24,6.24,0,0,0-2.95,3.83,6.31,6.31,0,0,0,.63,4.79l7.11,12.32a6.32,6.32,0,0,0,8.63,2.31l.15-.08a6.33,6.33,0,0,0,2.31-8.63l-7.11-12.32A6.33,6.33,0,0,0,448.91,527.29Z" transform="translate(-255.64 -193.11)"/><rect class="cls-1" x="126.08" y="332.77" width="13.8" height="27.85" rx="6.81"/><path class="cls-1" d="M388.7,554.23h-.16a7.32,7.32,0,0,1-7.32-7.32V532.69a7.32,7.32,0,0,1,7.32-7.31h.16a7.32,7.32,0,0,1,7.32,7.31v14.22A7.32,7.32,0,0,1,388.7,554.23Zm-.16-27.85a6.32,6.32,0,0,0-6.32,6.31v14.22a6.33,6.33,0,0,0,6.32,6.32h.16a6.33,6.33,0,0,0,6.32-6.32V532.69a6.32,6.32,0,0,0-6.32-6.31Z" transform="translate(-255.64 -193.11)"/><path class="cls-1" d="M326.27,501H340.5a6.81,6.81,0,0,1,6.81,6.81V508a6.82,6.82,0,0,1-6.82,6.82H326.27a6.81,6.81,0,0,1-6.81-6.81v-.17A6.81,6.81,0,0,1,326.27,501Z" transform="translate(-528.81 349.56) rotate(-60)"/><path class="cls-1" d="M329.89,521.43a7.23,7.23,0,0,1-3.64-1l-.15-.09a7.33,7.33,0,0,1-2.68-10l7.11-12.32a7.33,7.33,0,0,1,10-2.67l.14.08a7.33,7.33,0,0,1,2.68,10l-7.11,12.32a7.31,7.31,0,0,1-6.35,3.66Zm7-26a6.54,6.54,0,0,0-1.64.22,6.28,6.28,0,0,0-3.84,2.94l-7.11,12.32a6.32,6.32,0,0,0,2.31,8.63l.14.08a6.3,6.3,0,0,0,4.8.63,6.23,6.23,0,0,0,3.83-2.94L342.48,505a6.31,6.31,0,0,0-2.31-8.62l-.14-.09A6.34,6.34,0,0,0,336.88,495.39Z" transform="translate(-255.64 -193.11)"/><rect class="cls-1" x="526.74" y="232.68" width="139.85" height="41.78" rx="10.78" transform="translate(98.42 -540.75) rotate(45)"/><path class="cls-1" d="M562,193.81a10.77,10.77,0,0,0-7.62,3.16l-14.3,14.3a10.77,10.77,0,0,0,0,15.24l83.65,83.65a10.77,10.77,0,0,0,15.24,0l14.3-14.3a10.77,10.77,0,0,0,0-15.24L569.61,197a10.75,10.75,0,0,0-7.62-3.16Z" transform="translate(-255.64 -193.11)"/><path class="cls-1" d="M544.62,276.52l-16.88,16a9.24,9.24,0,0,0,0,13.46c1.4,1.31,2.78,2.64,4.15,4A156.94,156.94,0,1,1,310,531.92q-5.06-5.07-9.6-10.51a9.29,9.29,0,0,0-13.52-.85l-16.88,16a9.27,9.27,0,0,0-.7,12.73,198.26,198.26,0,0,0,142.92,70.18c115.18,5,209.5-86.9,207.41-202.17A198.08,198.08,0,0,0,557.37,276.5,9.28,9.28,0,0,0,544.62,276.52Z" transform="translate(-255.64 -193.11)"/><path class="cls-1" d="M421.25,620.14c-3,0-6-.06-9.08-.19A199.75,199.75,0,0,1,268.88,549.6a9.79,9.79,0,0,1,.75-13.43l16.87-16a9.61,9.61,0,0,1,7.25-2.65,9.92,9.92,0,0,1,7,3.54c3,3.61,6.24,7.14,9.58,10.47A156.43,156.43,0,0,0,577.3,426a157.13,157.13,0,0,0-45.75-115.63c-1.34-1.34-2.73-2.69-4.13-4a9.56,9.56,0,0,1-3.08-7,9.8,9.8,0,0,1,3.06-7.15l16.88-16a9.78,9.78,0,0,1,13.44,0A197.61,197.61,0,0,1,620.1,417.27c1,55.87-20.24,107.9-59.84,146.51C522.79,600.32,473.72,620.14,421.25,620.14ZM293.17,518.53a8.63,8.63,0,0,0-6,2.39l-16.88,16a8.79,8.79,0,0,0-.66,12.05,198.71,198.71,0,0,0,142.56,70c55.61,2.43,107.92-17.44,147.35-55.88s60.55-90.19,59.54-145.78A196.63,196.63,0,0,0,557,276.86a8.79,8.79,0,0,0-12.06,0l-16.88,16a8.8,8.8,0,0,0-2.75,6.42,8.6,8.6,0,0,0,2.76,6.32c1.41,1.31,2.81,2.66,4.16,4A158.16,158.16,0,0,1,578.3,426,157.43,157.43,0,0,1,309.62,532.27c-3.36-3.36-6.6-6.9-9.64-10.54a8.75,8.75,0,0,0-6.29-3.18Z" transform="translate(-255.64 -193.11)"/><circle class="cls-1" cx="163.36" cy="226.72" r="6.97"/><path class="cls-1" d="M419,412.86a7,7,0,1,0,7,7,7,7,0,0,0-7-7Z" transform="translate(-255.64 -193.11)"/><rect class="cls-1" x="395.68" y="472.12" width="104.73" height="13.94" rx="5.44" transform="translate(425.48 -327.16) rotate(63.89)"/><path class="cls-1" d="M467.32,527.84a5.93,5.93,0,0,1-5.34-3.33l-41.29-84.27a6,6,0,0,1,2.72-7.95l2.75-1.35a6,6,0,0,1,7.95,2.72l41.29,84.28a5.92,5.92,0,0,1-2.72,7.94l-2.75,1.35A5.88,5.88,0,0,1,467.32,527.84Zm-38.55-96.5a5,5,0,0,0-2.17.5l-2.75,1.35a5,5,0,0,0-2.27,6.61l41.3,84.28a5,5,0,0,0,6.61,2.26l2.75-1.35a4.94,4.94,0,0,0,2.26-6.61L433.21,434.1A5,5,0,0,0,428.77,431.34Z" transform="translate(-255.64 -193.11)"/><rect class="cls-1" x="177.4" y="219.75" width="61.58" height="13.94" rx="5.44"/><path class="cls-1" d="M489.18,427.3h-50.7a6,6,0,0,1-5.94-5.94V418.3a6,6,0,0,1,5.94-5.94h50.7a5.94,5.94,0,0,1,5.94,5.94v3.06A5.94,5.94,0,0,1,489.18,427.3Zm-50.7-13.94a4.94,4.94,0,0,0-4.94,4.94v3.06a4.94,4.94,0,0,0,4.94,4.94h50.7a4.94,4.94,0,0,0,4.94-4.94V418.3a4.94,4.94,0,0,0-4.94-4.94Z" transform="translate(-255.64 -193.11)"/></svg>